<svg width="30" height="31" viewBox="0 0 30 31" fill="none" xmlns="http://www.w3.org/2000/svg">
<path d="M8.93453 30.13C8.93453 30.39 8.32453 30.6 7.10453 30.76C5.88453 30.92 4.66453 31 3.44453 31C2.22453 31 1.44453 30.93 1.10453 30.79C0.764531 30.65 0.594531 30.43 0.594531 30.13V10.84C0.594531 9.88 3.47453 9.4 9.23453 9.4C12.7145 9.4 15.0145 9.64 16.1345 10.12C17.4945 10.68 18.4145 11.44 18.8945 12.4C19.5345 13.64 19.8545 15.23 19.8545 17.17C19.8545 19.83 19.3945 21.76 18.4745 22.96C17.8145 23.84 17.1545 24.41 16.4945 24.67C15.8345 24.93 15.2845 25.12 14.8445 25.24C14.4245 25.34 13.8945 25.42 13.2545 25.48C12.3745 25.56 11.1745 25.6 9.65453 25.6L8.93453 25.57V30.13ZM8.96453 20.59H9.68453C10.0645 20.59 10.3645 20.54 10.5845 20.44C10.8045 20.32 10.9945 20.02 11.1545 19.54C11.3345 19.04 11.4245 18.35 11.4245 17.47C11.4245 16.57 11.3245 15.89 11.1245 15.43C10.9445 14.95 10.7545 14.67 10.5545 14.59C10.3745 14.49 10.1545 14.44 9.89453 14.44H8.96453V20.59Z" fill="#FFD136"/>
<path d="M26.0947 7.31562C25.0522 6.45453 23.4866 6.9059 22.5196 7.70477C21.6096 8.36288 20.9341 9.70553 21.5802 10.7425C22.2344 11.55 23.4905 11.4821 24.3779 11.0955C25.472 10.5945 26.5705 9.54987 26.5087 8.26168C26.4857 7.90948 26.3452 7.56446 26.0947 7.31562ZM22.2447 3.41446C21.4112 2.66515 20.0997 3.13506 19.4205 3.89908C18.4467 4.85269 17.876 6.4684 18.6133 7.69769C19.2576 8.52331 20.5165 8.27289 21.2404 7.66373C22.3719 6.75583 23.1758 5.06913 22.4594 3.69939C22.4017 3.59487 22.3298 3.49815 22.2447 3.41446ZM25.3366 12.9171C24.2173 11.9128 22.4345 12.3158 21.3736 13.2496C20.6574 13.8315 20.2478 15.0719 21.0043 15.764C22.1815 16.7548 24.0217 16.2605 25.0372 15.2269C25.6302 14.6405 25.9389 13.5908 25.3366 12.9171ZM14.4761 4.41434C13.2543 5.40115 12.7604 7.43512 13.8198 8.67395C14.5511 9.33861 15.6794 8.89548 16.238 8.19895C17.1154 7.2264 17.457 5.65375 16.7759 4.69679C16.0948 3.73984 15.061 3.82384 14.4761 4.41434Z" fill="#FFD136"/>
</svg>
