<svg width="132" height="34" viewBox="0 0 132 34" fill="none" xmlns="http://www.w3.org/2000/svg">
<path d="M10.3798 28.13C10.3798 28.39 9.76984 28.6 8.54984 28.76C7.32984 28.92 6.10984 29 4.88984 29C3.66984 29 2.88984 28.93 2.54984 28.79C2.20984 28.65 2.03984 28.43 2.03984 28.13V8.84C2.03984 7.88 4.91984 7.4 10.6798 7.4C14.1598 7.4 16.4598 7.64 17.5798 8.12C18.9398 8.68 19.8598 9.44 20.3398 10.4C20.9798 11.64 21.2998 13.23 21.2998 15.17C21.2998 17.83 20.8398 19.76 19.9198 20.96C19.2598 21.84 18.5998 22.41 17.9398 22.67C17.2798 22.93 16.7298 23.12 16.2898 23.24C15.8698 23.34 15.3398 23.42 14.6998 23.48C13.8198 23.56 12.6198 23.6 11.0998 23.6L10.3798 23.57V28.13ZM10.4098 18.59H11.1298C11.5098 18.59 11.8098 18.54 12.0298 18.44C12.2498 18.32 12.4398 18.02 12.5998 17.54C12.7798 17.04 12.8698 16.35 12.8698 15.47C12.8698 14.57 12.7698 13.89 12.5698 13.43C12.3898 12.95 12.1998 12.67 11.9998 12.59C11.8198 12.49 11.5998 12.44 11.3398 12.44H10.4098V18.59ZM38.4608 29H25.7408C24.7608 29 24.1008 28.93 23.7608 28.79C23.4208 28.65 23.2508 28.43 23.2508 28.13V9.14C23.2508 8.62 23.4808 8.25 23.9408 8.03C24.4208 7.81 25.2708 7.7 26.4908 7.7H38.5508C38.9708 7.7 39.1808 8.4 39.1808 9.8C39.1808 11.18 39.0908 12.24 38.9108 12.98C38.7308 13.7 38.4908 14.06 38.1908 14.06C36.8908 14.06 34.7008 13.93 31.6208 13.67V15.68C34.5808 15.56 36.5108 15.5 37.4108 15.5C37.9508 15.5 38.2208 16.13 38.2208 17.39C38.2208 18.65 38.1108 19.61 37.8908 20.27C37.6908 20.91 37.4108 21.23 37.0508 21.23L31.6208 21.11V23.03C35.1008 22.77 37.5008 22.64 38.8208 22.64C39.2408 22.64 39.4508 23.34 39.4508 24.74C39.4508 26.14 39.3608 27.2 39.1808 27.92C39.0008 28.64 38.7608 29 38.4608 29ZM54.3113 28.28C54.3113 28.5 53.6913 28.68 52.4513 28.82C51.2313 28.94 50.0013 29 48.7613 29C47.5413 29 46.7613 28.95 46.4213 28.85C46.1013 28.73 45.9413 28.54 45.9413 28.28V15.38H41.7713C41.5513 15.38 41.3613 15.1 41.2013 14.54C41.0413 13.98 40.9613 13.15 40.9613 12.05C40.9613 10.93 41.0813 9.93 41.3213 9.05C41.5613 8.15 41.8813 7.7 42.2813 7.7H58.5113C58.8113 7.7 59.0113 7.98 59.1113 8.54C59.2313 9.1 59.2913 9.91 59.2913 10.97C59.2913 12.03 59.1813 13.03 58.9613 13.97C58.7413 14.91 58.4413 15.38 58.0613 15.38H54.3113V28.28ZM76.3723 27.74C75.7723 28.18 74.9323 28.55 73.8523 28.85C72.7923 29.13 71.4123 29.27 69.7123 29.27C68.0323 29.27 66.4323 29.13 64.9123 28.85C63.3923 28.57 62.3023 28.26 61.6423 27.92C60.9823 27.58 60.6523 27.25 60.6523 26.93C60.6523 25.81 60.8123 24.65 61.1323 23.45C61.4523 22.23 61.8323 21.62 62.2723 21.62C62.3523 21.62 63.1823 21.89 64.7623 22.43C66.3423 22.97 67.5323 23.24 68.3323 23.24C69.1323 23.24 69.6523 23.16 69.8923 23C70.1323 22.82 70.2523 22.57 70.2523 22.25C70.2523 21.93 70.0323 21.65 69.5923 21.41C69.1523 21.15 68.6023 20.93 67.9423 20.75C67.2823 20.55 66.5623 20.27 65.7823 19.91C65.0223 19.55 64.3123 19.15 63.6523 18.71C62.9923 18.27 62.4423 17.65 62.0023 16.85C61.5623 16.03 61.3423 15.1 61.3423 14.06C61.3423 9.62 63.9923 7.4 69.2923 7.4C71.2723 7.4 72.9823 7.53 74.4223 7.79C75.8623 8.03 76.8723 8.31 77.4523 8.63C78.0523 8.93 78.3523 9.23 78.3523 9.53C78.3523 10.57 78.1023 11.69 77.6023 12.89C77.1223 14.09 76.6523 14.69 76.1923 14.69C76.1123 14.69 75.8523 14.6 75.4123 14.42C74.0923 13.84 72.9923 13.55 72.1123 13.55C71.2523 13.55 70.6623 13.63 70.3423 13.79C70.0423 13.95 69.8923 14.2 69.8923 14.54C69.8923 14.86 70.1123 15.13 70.5523 15.35C70.9923 15.55 71.5323 15.74 72.1723 15.92C72.8323 16.08 73.5423 16.34 74.3023 16.7C75.0823 17.04 75.8023 17.45 76.4623 17.93C77.1223 18.39 77.6723 19.05 78.1123 19.91C78.5523 20.77 78.7723 21.77 78.7723 22.91C78.7723 24.11 78.4623 25.2 77.8423 26.18C77.4623 26.78 76.9723 27.3 76.3723 27.74ZM86.5493 28.318C86.5493 28.5087 86.0946 28.6627 85.1852 28.78C84.2906 28.8973 83.3959 28.956 82.5013 28.956C81.6066 28.956 81.0346 28.9047 80.7853 28.802C80.5359 28.6993 80.4113 28.538 80.4113 28.318V14.832C80.4113 14.4507 80.8219 14.1133 81.6433 13.82C82.4793 13.5267 83.4399 13.38 84.5253 13.38C85.4199 13.38 85.9993 13.556 86.2633 13.908C86.4539 14.1573 86.5493 14.3847 86.5493 14.59V18.22H86.7253C86.7253 18.1467 86.9453 17.538 87.3853 16.394C88.2213 14.238 88.8299 13.16 89.2113 13.16C89.9299 13.16 90.9419 13.3727 92.2473 13.798C92.8779 14.0033 93.4206 14.304 93.8753 14.7C94.3299 15.0813 94.5573 15.5067 94.5573 15.976C94.5573 16.2693 94.2566 16.8413 93.6553 17.692C93.0686 18.528 92.1739 19.65 90.9713 21.058C91.2499 21.3513 91.6019 21.7253 92.0273 22.18C92.4526 22.6347 93.0173 23.3167 93.7213 24.226C94.4399 25.1207 94.7993 25.7587 94.7993 26.14C94.7993 26.5213 94.4546 26.9687 93.7653 27.482C93.0759 27.9807 92.3426 28.3913 91.5653 28.714C90.7879 29.022 90.2086 29.176 89.8273 29.176C89.5779 29.176 89.2333 28.802 88.7933 28.054C88.3679 27.2913 87.8473 26.1547 87.2313 24.644L86.5493 25.458V28.318ZM102.147 28.472C102.147 28.6333 101.7 28.7653 100.805 28.868C99.9102 28.956 99.0082 29 98.0989 29C97.2042 29 96.6322 28.9633 96.3829 28.89C96.1336 28.802 96.0089 28.6627 96.0089 28.472V14.788C96.0089 14.4653 96.4342 14.15 97.2849 13.842C98.1356 13.5193 99.0889 13.358 100.145 13.358C101.084 13.358 101.7 13.556 101.993 13.952C102.096 14.0987 102.147 14.2453 102.147 14.392V28.472ZM107.303 29C106.936 29 106.401 29 105.697 29C105.008 29 104.538 28.9487 104.289 28.846C104.04 28.7433 103.915 28.582 103.915 28.362V14.48C103.915 14.1427 104.362 13.8787 105.257 13.688C106.166 13.4827 107.134 13.38 108.161 13.38C109.188 13.38 109.921 13.512 110.361 13.776C110.801 14.04 111.058 14.3187 111.131 14.612L112.627 20.42H112.825L114.233 14.876C114.336 14.48 114.812 14.1353 115.663 13.842C116.528 13.534 117.474 13.38 118.501 13.38C119.528 13.38 120.283 13.4607 120.767 13.622C121.266 13.7833 121.515 13.9887 121.515 14.238V28.362C121.515 28.5527 121.097 28.7067 120.261 28.824C119.425 28.9413 118.406 29 117.203 29C116 29 115.399 28.7873 115.399 28.362C115.399 27.2033 115.524 25.1427 115.773 22.18H115.575L114.431 27.922C114.387 28.142 114.204 28.3033 113.881 28.406C113.573 28.5087 113.104 28.56 112.473 28.56C111.842 28.56 111.454 28.516 111.307 28.428C111.175 28.34 111.087 28.1713 111.043 27.922L109.855 22.18H109.657C109.921 25.2013 110.053 27.262 110.053 28.362C110.053 28.7433 109.136 28.956 107.303 29Z" fill="#FFD136"/>
<path d="M127.878 10.1912C126.818 9.35094 125.237 9.85313 124.264 10.6892C123.347 11.3813 122.672 12.7588 123.332 13.7885C123.999 14.5859 125.269 14.4806 126.164 14.0637C127.268 13.5251 128.373 12.4366 128.303 11.1358C128.277 10.7803 128.133 10.4355 127.878 10.1912ZM123.96 6.35882C123.112 5.62547 121.788 6.13899 121.105 6.93143C120.126 7.9242 119.559 9.57472 120.312 10.7963C120.969 11.6123 122.241 11.3223 122.969 10.6851C124.109 9.73397 124.912 8.00485 124.178 6.64068C124.119 6.53667 124.046 6.44097 123.96 6.35882ZM127.145 15.8777C126.007 14.8948 124.206 15.3544 123.138 16.3298C122.417 16.9392 122.01 18.2055 122.78 18.8832C123.977 19.8507 125.835 19.297 126.856 18.2221C127.453 17.6119 127.759 16.5414 127.145 15.8777ZM116.107 7.59698C114.877 8.63057 114.389 10.7018 115.469 11.9236C116.213 12.5743 117.351 12.0932 117.912 11.3726C118.794 10.3634 119.13 8.76317 118.435 7.81538C117.74 6.8676 116.695 6.98276 116.107 7.59698Z" fill="#FFD136"/>
</svg>
