<svg width="28" height="29" viewBox="0 0 28 29" fill="none" xmlns="http://www.w3.org/2000/svg">
<g id="&#240;&#159;&#166;&#134; icon &#34;magnifying glass&#34;">
<path id="Vector" d="M12.1401 0.0359248C5.4457 0.0359248 0 5.67611 0 12.6096C0 19.5431 5.4457 25.1833 12.1401 25.1833C14.1866 25.1833 16.1984 24.6803 17.898 23.7103C18.0341 23.88 18.185 24.0364 18.3489 24.1774L21.8175 27.7698C22.1378 28.1431 22.5283 28.4446 22.9652 28.6559C23.4021 28.8672 23.876 28.9837 24.3579 28.9984C24.8399 29.0131 25.3196 28.9256 25.7677 28.7413C26.2158 28.557 26.6228 28.2798 26.9638 27.9267C27.3047 27.5736 27.5723 27.1521 27.7503 26.688C27.9282 26.2239 28.0127 25.727 27.9985 25.2279C27.9843 24.7287 27.8717 24.2378 27.6678 23.7854C27.4638 23.3329 27.1727 22.9284 26.8123 22.5967L23.3437 19.0042C23.1747 18.8291 22.9887 18.6726 22.7887 18.5372C23.7252 16.7769 24.3149 14.7292 24.3149 12.5737C24.3149 5.64019 18.8692 0 12.1748 0L12.1401 0.0359248ZM12.1401 3.6284C16.9614 3.6284 20.8116 7.61605 20.8116 12.6096C20.8116 14.9806 19.9791 17.172 18.5223 18.7887C18.4876 18.8246 18.4529 18.8605 18.4183 18.8964C18.2544 19.0374 18.1035 19.1938 17.9673 19.3634C16.4412 20.8004 14.36 21.6267 12.1054 21.6267C7.28406 21.6267 3.43391 17.6391 3.43391 12.6455C3.43391 7.65197 7.28406 3.66433 12.1054 3.66433L12.1401 3.6284Z" fill="#4A72FE"/>
</g>
</svg>
